{"title":"This Is The End 2013 TS XViD - VAiN","uid":8751512,"size":1509263464,"categoryP":"video","categoryS":"movies","magnet":"?xt=urn:btih:a3a2d6c94f4d50ec2f706a686d5241d94989b690&amp;dn=This+Is+The+End+2013+TS+XViD+-+VAiN&amp;tr=udp%3A%2F%2Ftracker.openbittorrent.com%3A80&amp;tr=udp%3A%2F%2Fopen.demonii.com%3A1337&amp;tr=udp%3A%2F%2Ftracker.coppersurfer.tk%3A6969&amp;tr=udp%3A%2F%2Fexodus.desync.com%3A6969","seeders":9,"leechers":2,"uploader":"xxxlavalxxx","files":-1,"time":1375043233,"description":" &lt;a href=&quot;http://www.imdb.com/title/tt1245492/&quot; rel=&quot;nofollow&quot; target=&quot;_NEW&quot;&gt;http://www.imdb.com/title/tt1245492/&lt;/a&gt;\n\n\nWhile attending a party at James Franco's house, Seth Rogen, Jay Baruchel and many other celebrities are faced with the apocalypse. \n\n\n\nDirectors:\n Evan Goldberg, Seth Rogen \n\nWriters:\n Seth Rogen (screenplay), Evan Goldberg (screenplay)\n\nStars:\n James Franco, Jonah Hill, Seth Rogen\n\nGenres:\n  Comedy |  Fantasy \n\nCountry:\n USA \n\nLanguage:\n English \n\n\n\n\n\n General\n Complete name                            : This Is The End 2013 TS XViD - VAiN.avi\n Format                                   : AVI\n Format/Info                              : Audio Video Interleave\n File size                                : 1.38 GiB\n Duration                                 : 1h 40mn\n Overall bit rate                         : 1 967 Kbps\n Writing application                      : VirtualDubMod 1.5.10.2 (build 2540/release)\n Writing library                          : VirtualDubMod build 2540/release\n\n Video\n ID                                       : 0\n Format                                   : MPEG-4 Visual\n Format profile                           : Advanced Simple@L5\n Format settings, BVOP                    : 2\n Format settings, QPel                    : No\n Format settings, GMC                     : No warppoints\n Format settings, Matrix                  : Default (MPEG)\n Muxing mode                              : Packed bitstream\n Codec ID                                 : XVID\n Codec ID/Hint                            : XviD\n Duration                                 : 1h 40mn\n Bit rate                                 : 1 827 Kbps\n Width                                    : 720 pixels\n Height                                   : 384 pixels\n Display aspect ratio                     : 3:2\n Original display aspect ratio            : 1.85:1\n Frame rate                               : 29.970 fps\n Color space                              : YUV\n Chroma subsampling                       : 4:2:0\n Bit depth                                : 8 bits\n Scan type                                : Progressive\n Compression mode                         : Lossy\n Bits/(Pixel*Frame)                       : 0.221\n Stream size                              : 1.29 GiB (93%)\n Writing library                          : XviD 64\n\n Audio\n ID                                       : 1\n Format                                   : MPEG Audio\n Format version                           : Version 1\n Format profile                           : Layer 3\n Codec ID                                 : 55\n Codec ID/Hint                            : MP3\n Duration                                 : 1h 40mn\n Bit rate mode                            : Constant\n Bit rate                                 : 128 Kbps\n Channel(s)                               : 2 channels\n Sampling rate                            : 44.1 KHz\n Compression mode                         : Lossy\n Stream size                              : 92.2 MiB (7%)\n Alignment                                : Split accross interleaves\n Interleave, duration                     : 33 ms (1.00 video frame)\n Interleave, preload duration             : 500 ms\n\n\n\n E N C O D E R S . N O T E S . . .       \n\n SOURCE......: V - vobs\n              A - AFRiEND\n\n\n\n\nscreens\n\n\n    &lt;a href=&quot;\thttp://addpix.net/viewer.php?file=25163344962063382945.jpg&quot; rel=&quot;nofollow&quot; target=&quot;_NEW&quot;&gt;\thttp://addpix.net/viewer.php?file=25163344962063382945.jpg&lt;/a&gt;\n    &lt;a href=&quot;\thttp://addpix.net/viewer.php?file=99401574292307686622.jpg&quot; rel=&quot;nofollow&quot; target=&quot;_NEW&quot;&gt;\thttp://addpix.net/viewer.php?file=99401574292307686622.jpg&lt;/a&gt;\n    &lt;a href=&quot;\thttp://addpix.net/viewer.php?file=94806039163452849538.jpg&quot; rel=&quot;nofollow&quot; target=&quot;_NEW&quot;&gt;\thttp://addpix.net/viewer.php?file=94806039163452849538.jpg&lt;/a&gt;\n    &lt;a href=&quot;\thttp://addpix.net/viewer.php?file=01751542569799168555.jpg&quot; rel=&quot;nofollow&quot; target=&quot;_NEW&quot;&gt;\thttp://addpix.net/viewer.php?file=01751542569799168555.jpg&lt;/a&gt;\n    &lt;a href=&quot;\thttp://addpix.net/viewer.php?file=45350178567000637624.jpg&quot; rel=&quot;nofollow&quot; target=&quot;_NEW&quot;&gt;\thttp://addpix.net/viewer.php?file=45350178567000637624.jpg&lt;/a&gt;\n\n","torrent":{"xt":"urn:btih:a3a2d6c94f4d50ec2f706a686d5241d94989b690","amp;dn":"This+Is+The+End+2013+TS+XViD+-+VAiN","amp;tr":["udp%3A%2F%2Ftracker.openbittorrent.com%3A80","udp%3A%2F%2Fopen.demonii.com%3A1337","udp%3A%2F%2Ftracker.coppersurfer.tk%3A6969","udp%3A%2F%2Fexodus.desync.com%3A6969"],"infoHash":"a3a2d6c94f4d50ec2f706a686d5241d94989b690","infoHashBuffer":{"type":"Buffer","data":[163,162,214,201,79,77,80,236,47,112,106,104,109,82,65,217,73,137,182,144]},"announce":[],"urlList":[]}}